<?xml version="1.0" encoding="UTF-8"?>
<svg width="145px" height="208px" viewBox="0 0 145 208" version="1.1" xmlns="http://www.w3.org/2000/svg" xmlns:xlink="http://www.w3.org/1999/xlink">
    <!-- Generator: Sketch 52.4 (67378) - http://www.bohemiancoding.com/sketch -->
    <title>Group</title>
    <desc>Created with Sketch.</desc>
    <g id="PUN-PUN-PUN" stroke="none" stroke-width="1" fill="none" fill-rule="evenodd">
        <g id="llegada" transform="translate(-117.000000, -184.000000)" stroke="#000000">
            <g id="Group" transform="translate(117.000000, 184.000000)">
                <path d="M26.5,170.5 L26.5,207.5 L92.8121324,207.5 L101.050895,200.291082 L107.229967,207.5 L119.5,207.5 L119.5,170.5 L26.5,170.5 Z" id="Rectangle" fill="#FFFFFF"></path>
                <g id="Tijeras-1">
                    <path d="M86.116549,85.8177089 C86.2591534,86.1632034 86.5993786,86.4063219 86.996357,86.4062487 L87.003282,86.4062474 C87.4004243,86.4061741 87.740751,86.1629728 87.8835229,85.8173827 L86.116549,85.8177089 Z" id="Rectangle-Copy-29" stroke-width="0.72600006" fill="#000000" transform="translate(87.000130, 86.111776) rotate(4.000000) translate(-87.000130, -86.111776) "></path>
                    <path d="M0.581525948,144.476274 L0.581539006,144.486535 C0.580923305,144.584246 0.580923305,144.584246 0.580800057,144.682028 C0.580800057,168.205443 32.738293,187.4192 72.5,187.4192 C112.261707,187.4192 144.4192,168.205443 144.4192,144.682028 C144.4192,144.512014 144.4192,144.512014 144.419197,144.341778 C144.419199,144.337172 144.419199,144.337172 144.4192,144.332565 L144.4192,101.155946 C144.4192,93.4575378 138.178407,87.2167448 130.479999,87.2167448 L115.53101,87.2167448 L125.269462,32.2183512 C125.271197,32.2085381 125.271197,32.2085381 125.272923,32.1987234 C126.600242,24.6394923 121.548278,17.4355203 113.989047,16.1082014 C106.414883,14.7782604 99.194647,19.8339086 97.8538445,27.4061582 L87.5719038,85.4739334 L86.4191999,85.3726675 L86.4191999,14.5 C86.4191999,6.81263814 80.1873619,0.580800057 72.5,0.580800057 C64.8126381,0.580800057 58.5808001,6.81263814 58.5808001,14.5 L58.5808001,89.7216163 L57.4591934,86.8576523 C55.8998414,82.8759282 52.591807,79.8052139 48.4438063,78.5739645 L43.9147285,77.2296001 C42.8840507,76.9236644 41.8145687,76.7682877 40.7394439,76.7682877 C34.5766951,76.7682877 29.5808001,81.7641827 29.5808001,87.9269315 L28.4191999,87.9269315 L28.4191999,86.6966206 C28.4191999,79.0092587 22.1873619,72.7774206 14.5,72.7774206 C6.81263814,72.7774206 0.580800057,79.0092587 0.580800057,86.6966206 L0.580800057,144.332565 C0.580921239,144.404479 0.580921239,144.404479 0.581525948,144.476274 Z M-0.580060788,144.482971 C-0.580050018,144.481261 -0.580039058,144.479522 -0.580027904,144.477752 L-0.580014847,144.488013 C-0.580029924,144.486223 -0.580044653,144.484474 -0.580059045,144.482765 Z" id="Combined-Shape-Copy-8" stroke-width="1.16160011" fill="#FFFFFF"></path>
                    <path d="M116,115.692308 C96.6666667,115.692308 87,125.333333 87,144.615385" id="Oval-Copy-14" stroke-width="1.16160011" stroke-linecap="round"></path>
                    <path d="M118.323132,88.0839161 L101.461538,88.0839161 C93.4746513,88.0839161 87,94.5585674 87,102.545455 L87,102.545455 C87,110.532342 93.4746513,117.006993 101.461538,117.006993 L118.636364,117.006993" id="Path-Copy-4" stroke-width="1.16160011" fill="#FFFFFF"></path>
                    <path d="M43.5200014,58.4269539 C35.8215931,58.4269539 29.5808001,64.6677469 29.5808001,72.3661553 L29.5808001,101.172306 C29.5808001,108.870715 35.8215931,115.111508 43.5200014,115.111508 L44.7981804,115.111508 C52.4965887,115.111508 58.7373818,108.870715 58.7373818,101.172306 L58.7373818,72.3661553 C58.7373818,64.6677469 52.4965887,58.4269539 44.7981804,58.4269539 L43.5200014,58.4269539 Z" id="Rectangle-Copy-31" stroke-width="1.16160011" fill="#FFFFFF"></path>
                    <rect id="Rectangle-Copy-34" stroke-width="1.16160011" x="0.580800057" y="72.8884924" width="27.8383999" height="44.8523859" rx="13.9191999"></rect>
                </g>
            </g>
        </g>
    </g>
</svg>